<svg xmlns="http://www.w3.org/2000/svg" width="375" height="100" fill="none"><path fill="#fff" d="M0 0h375v100H0z"/><path fill="#000" fill-opacity=".1" stroke="#000" d="M11.706 51.893 44.52 19.08l19.112 19.112-32.814 32.814z"/><path fill="#000" fill-opacity=".1" stroke="#000" d="M78.042 71.006 45.228 38.192 64.34 19.079l32.814 32.814z"/><path fill="#FF3232" d="m44.52 18.372 9.91-9.91 9.909 9.91-9.91 9.91z"/><path fill="#000" fill-opacity=".1" stroke="#000" d="m101.548 51.893 32.814-32.814 19.112 19.112-32.814 32.814z"/><path fill="#000" fill-opacity=".1" stroke="#000" d="M167.884 71.005 135.07 38.191l19.112-19.112 32.814 32.814z"/><path fill="#32C8FF" d="m134.362 18.372 9.91-9.91 9.909 9.91-9.91 9.91z"/><path fill="#000" fill-opacity=".1" stroke="#000" d="m191.96 51.893 32.814-32.814 19.112 19.112-32.814 32.814z"/><path fill="#000" fill-opacity=".1" stroke="#000" d="M258.295 71.005 225.48 38.191l19.112-19.112 32.814 32.814z"/><path fill="#32C8FF" fill-opacity=".2" d="m224.774 18.372 9.91-9.91 9.909 9.91-9.91 9.91z"/><path fill="#000" fill-opacity=".1" stroke="#000" d="m282.37 51.893 32.815-32.814 19.112 19.112-32.814 32.814z"/><path fill="#000" fill-opacity=".1" stroke="#000" d="m348.707 71.005-32.814-32.814 19.112-19.112 32.814 32.814z"/><path fill="#32C8FF" fill-opacity=".2" d="m315.186 18.372 9.91-9.91 9.909 9.91-9.91 9.91z"/><path fill="#32C8FF" d="M244.583 18.382a13.995 13.995 0 0 0-15.257-3.035 14 14 0 0 0-4.542 3.035l9.9 9.9zm80.429 9.899-10.004-9.85h19.854z"/><text xml:space="preserve" fill="#FF3232" font-family="sans-serif" font-size="12" letter-spacing="0em" style="white-space:pre"><tspan x="10.783" y="90.864">Bounding Quad</tspan></text><text xml:space="preserve" fill="#32C8FF" font-family="sans-serif" font-size="12" letter-spacing="0em" style="white-space:pre"><tspan x="126.073" y="90.864">MITER</tspan></text><text xml:space="preserve" fill="#32C8FF" font-family="sans-serif" font-size="12" letter-spacing="0em" style="white-space:pre"><tspan x="212.498" y="90.864">ROUND</tspan></text><text xml:space="preserve" fill="#32C8FF" font-family="sans-serif" font-size="12" letter-spacing="0em" style="white-space:pre"><tspan x="306.591" y="90.864">BEVEL</tspan></text></svg>