<svg xmlns="http://www.w3.org/2000/svg" width="400" height="200"><path fill="rgba(50, 50, 255, 0.2)" stroke="rgba(50, 50, 255, 1)" stroke-width="2" d="m70.518 166.886 80-75-41.036-43.772-80 75Z"/><path fill="rgba(50, 50, 255, 0.2)" stroke="rgba(50, 50, 255, 1)" stroke-width="2" d="M130 100h140V40H130Z"/><path fill="rgba(50, 50, 255, 0.2)" stroke="rgba(50, 50, 255, 1)" stroke-width="2" d="m249.482 91.886 80 75 41.036-43.772-80-75Z"/><path fill="rgba(255, 50, 255, 0.2)" stroke="rgba(255, 50, 255, 1)" stroke-width="2" d="M150.518 91.886A30 30 0 0 1 130 100V40a30 30 0 0 0-20.518 8.114ZM270 100a30 30 0 0 1-20.518-8.114l41.036-43.772A30 30 0 0 0 270 40Z"/><path fill="rgba(50, 200, 255, 0.2)" stroke="rgba(50, 200, 255, 1)" stroke-width="2" d="M70.518 166.886a30 30 0 0 1-41.036-43.772Zm258.964 0a30 30 0 0 0 41.036-43.772Z"/><path fill="none" stroke="rgba(255, 50, 50, 1)" stroke-width="2" d="m50 145 80-75h140l80 75"/><text x="80" y="190" fill="#32C8FF" font-family="sans-serif" font-size="16" text-anchor="middle">Cap</text><text x="200" y="32" fill="#3232FF" font-family="sans-serif" font-size="16" text-anchor="middle">Segment</text><text x="310" y="50" fill="#FF32FF" font-family="sans-serif" font-size="16" text-anchor="middle">Join</text><text x="200" y="125" fill="#FF3232" font-family="sans-serif" font-size="16" text-anchor="middle">Center Line</text></svg>