<svg width="600" height="370" viewBox="0 0 600 370" fill="none" xmlns="http://www.w3.org/2000/svg">
<rect width="600" height="370" fill="white"/>
<rect x="128.064" y="181.13" width="149.009" height="149.009" rx="22" fill="#E0E0E0"/>
<circle cx="158.388" cy="212.036" r="8.11009" fill="#333333"/>
<circle cx="246.167" cy="212.036" r="8.11009" fill="#333333"/>
<circle cx="158.388" cy="299.816" r="8.11009" fill="#333333"/>
<circle cx="246.167" cy="299.816" r="8.11009" fill="#333333"/>
<rect x="330.224" y="181.13" width="149.009" height="149.009" rx="22" fill="#E0E0E0"/>
<circle cx="360.547" cy="212.036" r="8.11009" fill="#333333"/>
<circle cx="448.327" cy="212.036" r="8.11009" fill="#333333"/>
<circle cx="360.547" cy="299.816" r="8.11009" fill="#333333"/>
<circle cx="448.327" cy="299.816" r="8.11009" fill="#333333"/>
<path d="M158.83 299.926V211.926L245.83 299.926H158.83Z" fill="#EB5757" fill-opacity="0.5" stroke="#EB5757" stroke-width="4" stroke-linejoin="round"/>
<path d="M448.532 211.926L448.532 299.926L361.532 211.926L448.532 211.926Z" fill="#EB5757" fill-opacity="0.5" stroke="#EB5757" stroke-width="4" stroke-linejoin="round"/>
<rect x="30.1944" y="20.5607" width="106.026" height="107.459" rx="22" fill="#E0E0E0"/>
<ellipse cx="51.7706" cy="42.8486" rx="5.77064" ry="5.84862" fill="#333333"/>
<rect x="172.013" y="20.5607" width="106.026" height="107.459" rx="22" fill="#E0E0E0"/>
<ellipse cx="193.589" cy="42.8486" rx="5.77064" ry="5.84862" fill="#333333"/>
<ellipse cx="256.048" cy="42.8486" rx="5.77064" ry="5.84862" fill="#333333"/>
<rect x="313.618" y="20.5607" width="107.459" height="107.459" rx="22" fill="#E0E0E0"/>
<circle cx="335.486" cy="42.8486" r="5.84862" fill="#333333"/>
<ellipse cx="398.789" cy="42.8486" rx="5.84862" ry="5.84862" fill="#333333"/>
<ellipse cx="335.486" cy="106.151" rx="5.84862" ry="5.84862" fill="#333333"/>
<rect x="456.437" y="20.5607" width="107.459" height="107.459" rx="22" fill="#E0E0E0"/>
<circle cx="478.305" cy="42.8486" r="5.84862" fill="#333333"/>
<ellipse cx="541.608" cy="42.8486" rx="5.84862" ry="5.84862" fill="#333333"/>
<ellipse cx="478.305" cy="106.151" rx="5.84862" ry="5.84862" fill="#333333"/>
<circle cx="541.608" cy="106.151" r="5.84862" fill="#333333"/>
<text fill="black" xml:space="preserve" style="white-space: pre" font-family="sans-serif" font-size="12" letter-spacing="0em"><tspan x="49.0625" y="151.54">Add index 0</tspan></text>
<text fill="#EB5757" xml:space="preserve" style="white-space: pre" font-family="sans-serif" font-size="12" letter-spacing="0em"><tspan x="162.487" y="350.039">Face [0, 3, 2]</tspan></text>
<text fill="#EB5757" xml:space="preserve" style="white-space: pre" font-family="sans-serif" font-size="12" letter-spacing="0em"><tspan x="368.564" y="350.039">Face [0, 1, 3]</tspan></text>
<text fill="black" xml:space="preserve" style="white-space: pre" font-family="sans-serif" font-size="12" letter-spacing="0em"><tspan x="189.134" y="151.54">Add index 1</tspan></text>
<text fill="black" xml:space="preserve" style="white-space: pre" font-family="sans-serif" font-size="12" letter-spacing="0em"><tspan x="333.527" y="151.54">Add index 2</tspan></text>
<text fill="black" xml:space="preserve" style="white-space: pre" font-family="sans-serif" font-size="12" letter-spacing="0em"><tspan x="474.162" y="151.54">Add index 3</tspan></text>
</svg>
