<svg xmlns="http://www.w3.org/2000/svg" width="375" height="75" fill="none"><path fill="#fff" d="M0 0h375v75H0z"/><text xml:space="preserve" fill="#FF3232" font-family="sans-serif" font-size="12" letter-spacing="0em" style="white-space:pre"><tspan x="10.783" y="61.864">Bounding Quad</tspan></text><text xml:space="preserve" fill="#32C8FF" font-family="sans-serif" font-size="12" letter-spacing="0em" style="white-space:pre"><tspan x="120.071" y="61.864">EXTEND</tspan></text><text xml:space="preserve" fill="#32C8FF" font-family="sans-serif" font-size="12" letter-spacing="0em" style="white-space:pre"><tspan x="212.498" y="61.864">ROUND</tspan></text><text xml:space="preserve" fill="#32C8FF" font-family="sans-serif" font-size="12" letter-spacing="0em" style="white-space:pre"><tspan x="301.273" y="61.864">SQUARE</tspan></text><path fill="#D9D9D9" stroke="#000" d="M19.519 11.674h57.045v31.339H19.519z"/><path fill="#FF3232" d="M77.064 11.174h15.315v32.339H77.064z"/><path fill="#D9D9D9" stroke="#000" d="M109.611 11.674h57.045v31.339h-57.045z"/><path fill="#32C8FF" d="M167.156 11.174h15.315v32.339h-15.315z"/><path fill="#D9D9D9" stroke="#000" d="M290.433 11.674h57.045v31.339h-57.045z"/><path fill="#32C8FF" fill-opacity=".2" d="M347.977 11.174h15.315v32.339h-15.315z"/><path fill="#D9D9D9" stroke="#000" d="M199.703 11.674h57.045v31.339h-57.045z"/><path fill="#32C8FF" fill-opacity=".2" d="M257.247 11.174H273.2v32.339h-15.953z"/><path fill="#32C8FF" d="M257.247 43.296A15.955 15.955 0 0 0 273.2 27.344a15.955 15.955 0 0 0-15.953-15.953z"/></svg>