<svg xmlns="http://www.w3.org/2000/svg" width="375" height="115" fill="none"><path fill="#fff" d="M0 0h375v115H0z"/><path fill="#000" fill-opacity=".05" d="m268.983 51.893 33.521-33.521 19.82 19.82-33.522 33.52z"/><path stroke="#000" stroke-opacity=".5" d="m269.69 51.893 32.814-32.814 19.112 19.112-32.814 32.814z"/><path fill="#000" fill-opacity=".05" d="M336.025 71.713 302.504 38.19l19.82-19.82 33.52 33.522z"/><path stroke="#000" stroke-opacity=".5" d="M336.025 71.005 303.21 38.191l19.112-19.112 32.814 32.814z"/><path fill="#000" fill-opacity=".2" stroke="#000" d="m302.514 19.049 9.9-9.9 9.9 9.9-9.9 9.9zm.696 19.142 9.203-9.202 9.203 9.202-9.203 9.202z"/><text xml:space="preserve" fill="#000" font-family="sans-serif" font-size="7" letter-spacing="0em" style="white-space:pre"><tspan x="292.416" y="18.917">-1</tspan></text><text xml:space="preserve" fill="#000" font-family="sans-serif" font-size="7" letter-spacing="0em" style="white-space:pre"><tspan x="297.526" y="40.736">1</tspan></text><text xml:space="preserve" fill="#000" font-family="sans-serif" font-size="7" letter-spacing="0em" style="white-space:pre"><tspan x="325.377" y="18.917">-3</tspan></text><text xml:space="preserve" fill="#000" font-family="sans-serif" font-size="7" letter-spacing="0em" style="white-space:pre"><tspan x="322.323" y="40.736">3</tspan></text><text xml:space="preserve" fill="#000" font-family="sans-serif" font-size="7" letter-spacing="0em" style="white-space:pre"><tspan x="308.804" y="6.545">-2</tspan></text><text xml:space="preserve" fill="#000" font-family="sans-serif" font-size="7" letter-spacing="0em" style="white-space:pre"><tspan x="310.795" y="56.646">2</tspan></text><circle cx="312.414" cy="29.05" r="2" fill="#FF3232"/><path fill="#32C8FF" d="M297.299 44.2a1 1 0 0 0-1-1h-9a1 1 0 0 0 0 2h8v8a1 1 0 0 0 2 0zm-17.783 18.198 17.49-17.491-1.414-1.414-17.491 17.49z"/><path fill="#FF32FF" d="M346.325 60.775a1 1 0 0 0 1-1v-9a1 1 0 0 0-2 0v8h-8a1 1 0 1 0 0 2zm-17.71-17.296 17.003 17.003 1.414-1.414-17.003-17.003z"/><path fill="#000" fill-opacity=".05" d="M162.124 27.177h47.406v28.029h-47.406z"/><path stroke="#000" stroke-opacity=".5" d="M162.624 27.677h46.406v27.029h-46.406z"/><path fill="#000" fill-opacity=".2" stroke="#000" d="M210.031 27.677h13v27.029h-13z"/><circle cx="209.531" cy="41.191" r="2" fill="#FF3232"/><circle cx="216.864" cy="41.179" r=".937" fill="#FF32FF"/><path fill="#32C8FF" d="M203.841 41.898a1 1 0 0 0 0-1.414l-6.363-6.364a1.001 1.001 0 0 0-1.415 1.414l5.657 5.657-5.657 5.657a1 1 0 0 0 1.415 1.414zm-23.197.293h22.49v-2h-22.49z"/><text xml:space="preserve" fill="#000" font-family="sans-serif" font-size="7" letter-spacing="0em" style="white-space:pre"><tspan x="205.057" y="22.917">-1</tspan></text><text xml:space="preserve" fill="#000" font-family="sans-serif" font-size="7" letter-spacing="0em" style="white-space:pre"><tspan x="208.667" y="64.301">1</tspan></text><text xml:space="preserve" fill="#000" font-family="sans-serif" font-size="7" letter-spacing="0em" style="white-space:pre"><tspan x="218.312" y="22.917">-2</tspan></text><text xml:space="preserve" fill="#000" font-family="sans-serif" font-size="7" letter-spacing="0em" style="white-space:pre"><tspan x="221.302" y="64.301">2</tspan></text><path fill="#000" fill-opacity=".2" stroke="#000" d="M39.731 27.665h71.026v27.029H39.731z"/><circle cx="39.231" cy="41.179" r="2" fill="#FF3232"/><circle cx="111.257" cy="41.179" r="2" fill="#FF3232"/><path fill="#32C8FF" d="M35.417 41.886a1 1 0 0 0 0-1.414l-6.364-6.364a1 1 0 0 0-1.414 1.414l5.657 5.657-5.657 5.657a1 1 0 0 0 1.415 1.414zm-23.197.293h22.49v-2H12.22z"/><path fill="#FF32FF" d="M138.976 41.886a1 1 0 0 0 0-1.414l-6.363-6.364a1.001 1.001 0 0 0-1.415 1.414l5.657 5.657-5.657 5.657a1 1 0 0 0 1.415 1.414zm-23.197.293h22.49v-2h-22.49z"/><text xml:space="preserve" fill="#000" font-family="sans-serif" font-size="7" letter-spacing="0em" style="white-space:pre"><tspan x="35.995" y="24.917">-1</tspan></text><text xml:space="preserve" fill="#000" font-family="sans-serif" font-size="7" letter-spacing="0em" style="white-space:pre"><tspan x="106.039" y="24.917">-2</tspan></text><text xml:space="preserve" fill="#000" font-family="sans-serif" font-size="7" letter-spacing="0em" style="white-space:pre"><tspan x="37.105" y="62.532">1</tspan></text><text xml:space="preserve" fill="#000" font-family="sans-serif" font-size="7" letter-spacing="0em" style="white-space:pre"><tspan x="108.029" y="62.532">2</tspan></text><text xml:space="preserve" fill="#969696" font-family="sans-serif" font-size="12" letter-spacing="0em" style="white-space:pre"><tspan x="53.599" y="105.972">Segment</tspan></text><text xml:space="preserve" fill="#32C8FF" font-family="sans-serif" font-size="8" letter-spacing="0em" style="white-space:pre"><tspan x="6.623" y="74.621">Tangent In</tspan></text><text xml:space="preserve" fill="#32C8FF" font-family="sans-serif" font-size="8" letter-spacing="0em" style="white-space:pre"><tspan x="6.623" y="74.621">Tangent In</tspan></text><text xml:space="preserve" fill="#FF32FF" font-family="sans-serif" font-size="8" letter-spacing="0em" style="white-space:pre"><tspan x="101.599" y="74.621">Tangent Out</tspan></text><text xml:space="preserve" fill="#FF3232" font-family="sans-serif" font-size="8" letter-spacing="0em" style="white-space:pre"><tspan x="183.937" y="76.621">Center Point</tspan></text><text xml:space="preserve" fill="#000" font-family="sans-serif" font-size="8" letter-spacing="0em" style="white-space:pre"><tspan x="305.239" y="76.621">Side</tspan></text><text xml:space="preserve" fill="#969696" font-family="sans-serif" font-size="12" letter-spacing="0em" style="white-space:pre"><tspan x="181.892" y="105.972">Cap</tspan></text><text xml:space="preserve" fill="#969696" font-family="sans-serif" font-size="12" letter-spacing="0em" style="white-space:pre"><tspan x="298.65" y="105.972">Join</tspan></text></svg>